<?xml version="1.0" encoding="utf-8"?>
<!-- Generator: Adobe Illustrator 16.0.0, SVG Export Plug-In . SVG Version: 6.00 Build 0)  -->
<!DOCTYPE svg PUBLIC "-//W3C//DTD SVG 1.1//EN" "http://www.w3.org/Graphics/SVG/1.1/DTD/svg11.dtd">
<svg version="1.1" id="Layer_1" xmlns="http://www.w3.org/2000/svg" xmlns:xlink="http://www.w3.org/1999/xlink" x="0px" y="0px"
	 width="32px" height="32px" viewBox="0 0 32 32" enable-background="new 0 0 32 32" xml:space="preserve">
<path d="M26,7v1L6,12v-1H4v8h2v-0.818l5.09,0.926C11.037,19.398,11,19.695,11,20c0,2.757,2.243,5,5,5
	c2.451,0,4.486-1.776,4.91-4.106L26,21.82V23h2V7H26z M16,23c-1.655,0-3-1.343-3-3c0-0.184,0.022-0.361,0.056-0.535l5.892,1.07
	C18.694,21.937,17.475,23,16,23z M6,15v-1l20-4v5H6z" fill="#fff" />
</svg>
