<?xml version="1.0" encoding="utf-8"?>
<!-- Generator: Adobe Illustrator 16.0.0, SVG Export Plug-In . SVG Version: 6.00 Build 0)  -->
<!DOCTYPE svg PUBLIC "-//W3C//DTD SVG 1.1//EN" "http://www.w3.org/Graphics/SVG/1.1/DTD/svg11.dtd">
<svg version="1.1" id="Layer_1" xmlns="http://www.w3.org/2000/svg" xmlns:xlink="http://www.w3.org/1999/xlink" x="0px" y="0px"
	 width="32px" height="32px" viewBox="0 0 32 32" enable-background="new 0 0 32 32" xml:space="preserve">
<g>
	<path d="M9.115,21.166c1.131,0.471,2.426-0.059,2.899-1.188c0.286-0.688,0.2-1.437-0.165-2.023l2.384-4.453
		c0.271-0.021,0.54-0.09,0.798-0.215c0.072-0.037,0.14-0.076,0.21-0.117l3.857,1.654c0.069,0.381,0.233,0.75,0.502,1.064
		c0.801,0.926,2.197,1.031,3.125,0.23c0.592-0.51,0.847-1.264,0.742-1.982l3.423-3.033c0.201,0.059,0.41,0.09,0.625,0.094
		c1.227,0.01,2.225-0.973,2.234-2.195c0.01-1.223-0.979-2.223-2.197-2.23c-1.223-0.01-2.221,0.975-2.229,2.197
		c-0.002,0.172,0.02,0.338,0.049,0.498l-3.288,2.918c-0.722-0.283-1.565-0.172-2.206,0.348l-3.609-1.547
		c-0.016-0.291-0.086-0.582-0.223-0.861c-0.539-1.096-1.863-1.551-2.96-1.016c-1.099,0.539-1.551,1.863-1.016,2.961
		c0.043,0.092,0.097,0.178,0.152,0.262l-2.35,4.383C9.043,16.954,8.27,17.454,7.93,18.27C7.457,19.396,7.988,20.693,9.115,21.166z" fill="#fff"
		/>
	<polygon points="6.25,5 2.25,5 2.25,7 4.25,7 4.25,9 2.25,9 2.25,11 4.25,11 4.25,13 2.25,13 2.25,15 4.25,15 4.25,17 2.25,17 
		2.25,19 4.25,19 4.25,21 2.25,21 2.25,23 4.25,23 4.25,25 7.25,25 7.25,27 9.25,27 9.25,25 11.25,25 11.25,27 13.25,27 13.25,25 
		15.25,25 15.25,27 17.25,27 17.25,25 19.25,25 19.25,27 21.25,27 21.25,25 23.25,25 23.25,27 25.25,27 25.25,25 27.25,25 27.25,27 
		29.25,27 29.25,23 6.25,23 	" fill="#fff" />
</g>
</svg>
