<?xml version="1.0" encoding="utf-8"?>
<!-- Generator: Adobe Illustrator 16.0.0, SVG Export Plug-In . SVG Version: 6.00 Build 0)  -->
<!DOCTYPE svg PUBLIC "-//W3C//DTD SVG 1.1//EN" "http://www.w3.org/Graphics/SVG/1.1/DTD/svg11.dtd">
<svg version="1.1" id="Layer_1" xmlns="http://www.w3.org/2000/svg" xmlns:xlink="http://www.w3.org/1999/xlink" x="0px" y="0px"
	 width="32px" height="32px" viewBox="0 0 32 32" enable-background="new 0 0 32 32" xml:space="preserve">
<g>
	<rect x="10" y="13.748" width="12" height="2" fill="#fff"/>
	<rect x="10" y="17.748" width="12" height="2" fill="#fff"/>
	<rect x="10" y="21.748" width="8" height="2" fill="#fff"/>
	<path d="M24.994,4.748H23v3h2v14.073l-5.984,5.927H7v-20h2v-3H6.998C5.346,4.748,4,6.164,4,7.818v20.018
		c0,1.653,1.346,2.912,2.998,2.912h17.996c1.652,0,3.006-1.259,3.006-2.912V7.818C28,6.164,26.646,4.748,24.994,4.748z" fill="#fff"/>
	<path d="M10.809,9.799h10.369C21.633,9.799,22,9.413,22,8.957V4.799l-2.412-0.857l-0.562-0.884
		c-0.604-1.072-1.737-1.806-3.059-1.806c-1.324,0-2.465,0.739-3.066,1.82L12.34,3.956L10,4.799v4.158
		C10,9.413,10.355,9.799,10.809,9.799z M15.967,3.088c0.932,0,1.688,0.755,1.688,1.688c0,0.931-0.756,1.686-1.688,1.686
		s-1.688-0.755-1.688-1.686C14.279,3.843,15.035,3.088,15.967,3.088z" fill="#fff" />
</g>
</svg>
