<?xml version="1.0" encoding="utf-8"?>
<!-- Generator: Adobe Illustrator 16.0.0, SVG Export Plug-In . SVG Version: 6.00 Build 0)  -->
<!DOCTYPE svg PUBLIC "-//W3C//DTD SVG 1.1//EN" "http://www.w3.org/Graphics/SVG/1.1/DTD/svg11.dtd">
<svg version="1.1" id="Layer_1" xmlns="http://www.w3.org/2000/svg" xmlns:xlink="http://www.w3.org/1999/xlink" x="0px" y="0px"
	 width="32px" height="32px" viewBox="0 0 32 32" enable-background="new 0 0 32 32" xml:space="preserve">
<g>
	<rect x="15.017" y="1.995" width="2" height="4" fill="#fff"/>
	<rect x="5.521" y="6.498" transform="matrix(-0.7072 -0.707 0.707 -0.7072 7.5399 18.1185)" width="4" height="2" fill="#fff"/>
	<rect x="1.993" y="14.982" width="4.002" height="2" fill="#fff"/>
	<rect x="6.499" y="22.477" transform="matrix(0.7071 0.7071 -0.7071 0.7071 19.5042 1.8669)" width="2" height="4.001" fill="#fff"/>
	<rect x="14.983" y="26.005" width="2" height="4" fill="#fff"/>
	<rect x="22.478" y="23.498" transform="matrix(0.7074 0.7069 -0.7069 0.7074 24.4807 -10.1335)" width="4.001" height="2" fill="#fff"/>
	<rect x="26.007" y="15.015" width="4" height="2.002" fill="#fff"/>
	<rect x="23.501" y="5.521" transform="matrix(-0.7066 -0.7076 0.7076 -0.7066 36.49 30.1724)" width="1.997" height="4.001" fill="#fff"/>
	<path d="M16.017,8.979c-3.865,0-7,3.133-7,7c0,3.864,3.135,7,7,7c3.867,0,7-3.136,7-7C23.017,12.111,19.884,8.979,16.017,8.979z
		 M16.017,20.979c-2.763,0-5-2.238-5-5s2.237-5,5-5c2.762,0,5,2.238,5,5S18.778,20.979,16.017,20.979z" fill="#fff"/>
</g>
</svg>
